<svg width="25" height="24" viewBox="0 0 25 24" fill="none" xmlns="http://www.w3.org/2000/svg">
<path d="M2.66992 12C2.66992 8.229 2.66992 6.343 3.84192 5.172C5.01392 4.001 6.89892 4 10.6699 4H14.6699C18.4409 4 20.3269 4 21.4979 5.172C22.6689 6.344 22.6699 8.229 22.6699 12V14C22.6699 17.771 22.6699 19.657 21.4979 20.828C20.3259 21.999 18.4409 22 14.6699 22H10.6699C6.89892 22 5.01292 22 3.84192 20.828C2.67092 19.656 2.66992 17.771 2.66992 14V12Z" stroke="#9E9E9E" stroke-width="1.5"/>
<path d="M7.66992 4V2.5M17.6699 4V2.5M3.16992 9H22.1699" stroke="#9E9E9E" stroke-width="1.5" stroke-linecap="round"/>
<path d="M18.6699 17C18.6699 17.2652 18.5646 17.5196 18.377 17.7071C18.1895 17.8946 17.9351 18 17.6699 18C17.4047 18 17.1504 17.8946 16.9628 17.7071C16.7753 17.5196 16.6699 17.2652 16.6699 17C16.6699 16.7348 16.7753 16.4804 16.9628 16.2929C17.1504 16.1054 17.4047 16 17.6699 16C17.9351 16 18.1895 16.1054 18.377 16.2929C18.5646 16.4804 18.6699 16.7348 18.6699 17ZM18.6699 13C18.6699 13.2652 18.5646 13.5196 18.377 13.7071C18.1895 13.8946 17.9351 14 17.6699 14C17.4047 14 17.1504 13.8946 16.9628 13.7071C16.7753 13.5196 16.6699 13.2652 16.6699 13C16.6699 12.7348 16.7753 12.4804 16.9628 12.2929C17.1504 12.1054 17.4047 12 17.6699 12C17.9351 12 18.1895 12.1054 18.377 12.2929C18.5646 12.4804 18.6699 12.7348 18.6699 13ZM13.6699 17C13.6699 17.2652 13.5646 17.5196 13.377 17.7071C13.1895 17.8946 12.9351 18 12.6699 18C12.4047 18 12.1504 17.8946 11.9628 17.7071C11.7753 17.5196 11.6699 17.2652 11.6699 17C11.6699 16.7348 11.7753 16.4804 11.9628 16.2929C12.1504 16.1054 12.4047 16 12.6699 16C12.9351 16 13.1895 16.1054 13.377 16.2929C13.5646 16.4804 13.6699 16.7348 13.6699 17ZM13.6699 13C13.6699 13.2652 13.5646 13.5196 13.377 13.7071C13.1895 13.8946 12.9351 14 12.6699 14C12.4047 14 12.1504 13.8946 11.9628 13.7071C11.7753 13.5196 11.6699 13.2652 11.6699 13C11.6699 12.7348 11.7753 12.4804 11.9628 12.2929C12.1504 12.1054 12.4047 12 12.6699 12C12.9351 12 13.1895 12.1054 13.377 12.2929C13.5646 12.4804 13.6699 12.7348 13.6699 13ZM8.66992 17C8.66992 17.2652 8.56456 17.5196 8.37703 17.7071C8.18949 17.8946 7.93514 18 7.66992 18C7.40471 18 7.15035 17.8946 6.96282 17.7071C6.77528 17.5196 6.66992 17.2652 6.66992 17C6.66992 16.7348 6.77528 16.4804 6.96282 16.2929C7.15035 16.1054 7.40471 16 7.66992 16C7.93514 16 8.18949 16.1054 8.37703 16.2929C8.56456 16.4804 8.66992 16.7348 8.66992 17ZM8.66992 13C8.66992 13.2652 8.56456 13.5196 8.37703 13.7071C8.18949 13.8946 7.93514 14 7.66992 14C7.40471 14 7.15035 13.8946 6.96282 13.7071C6.77528 13.5196 6.66992 13.2652 6.66992 13C6.66992 12.7348 6.77528 12.4804 6.96282 12.2929C7.15035 12.1054 7.40471 12 7.66992 12C7.93514 12 8.18949 12.1054 8.37703 12.2929C8.56456 12.4804 8.66992 12.7348 8.66992 13Z" fill="#9E9E9E"/>
</svg>
