<svg width="24" height="24" viewBox="0 0 24 24" fill="none" xmlns="http://www.w3.org/2000/svg">
<rect width="24" height="24" rx="6" fill="#D16F9A"/>
<path d="M9.75011 15.1275L7.14761 12.525C7.00738 12.3848 6.81718 12.306 6.61886 12.306C6.42054 12.306 6.23034 12.3848 6.09011 12.525C5.94988 12.6652 5.87109 12.8554 5.87109 13.0537C5.87109 13.1519 5.89044 13.2492 5.92801 13.3399C5.96559 13.4306 6.02067 13.5131 6.09011 13.5825L9.22511 16.7175C9.51761 17.01 9.99011 17.01 10.2826 16.7175L18.2176 8.7825C18.3578 8.64226 18.4366 8.45207 18.4366 8.25375C18.4366 8.05543 18.3578 7.86523 18.2176 7.725C18.0774 7.58476 17.8872 7.50598 17.6889 7.50598C17.4905 7.50598 17.3003 7.58476 17.1601 7.725L9.75011 15.1275Z" fill="white"/>
</svg>
