<svg width="16" height="12" viewBox="0 0 16 12" fill="none" xmlns="http://www.w3.org/2000/svg">
<g clip-path="url(#clip0_1_2553)">
<path d="M9.20011 6.33844C8.74891 6.33844 8.36944 6.18457 8.06171 5.87684C7.75398 5.56911 7.60011 5.18964 7.60011 4.73844C7.60011 4.28724 7.75398 3.90777 8.06171 3.60004C8.36944 3.29231 8.74891 3.13844 9.20011 3.13844C9.65131 3.13844 10.0308 3.29231 10.3385 3.60004C10.6462 3.90777 10.8001 4.28724 10.8001 4.73844C10.8001 5.18964 10.6462 5.56911 10.3385 5.87684C10.0308 6.18457 9.65131 6.33844 9.20011 6.33844ZM4.24651 8.89284C3.89078 8.89284 3.58651 8.76617 3.33371 8.51284C3.08038 8.2595 2.95371 7.95524 2.95371 7.60004V1.87684C2.95371 1.52164 3.08038 1.21764 3.33371 0.964839C3.58704 0.712039 3.89104 0.585372 4.24571 0.584839H14.1537C14.5094 0.584839 14.8137 0.711239 15.0665 0.964039C15.3193 1.21684 15.446 1.52111 15.4465 1.87684V7.60004C15.4465 7.95524 15.3198 8.25924 15.0665 8.51204C14.8137 8.76591 14.5097 8.89284 14.1545 8.89284H4.24651ZM5.04651 8.09284H13.3537C13.3537 7.73444 13.4804 7.42937 13.7337 7.17764C13.9865 6.92591 14.2905 6.80004 14.6457 6.80004V2.67684C14.2884 2.67684 13.9838 2.55044 13.7321 2.29764C13.4798 2.04431 13.3537 1.74004 13.3537 1.38484H5.04651C5.04651 1.74271 4.91984 2.04751 4.66651 2.29924C4.41371 2.55097 4.10971 2.67684 3.75451 2.67684V6.80004C4.11184 6.80004 4.41664 6.92671 4.66891 7.18004C4.92064 7.43284 5.04651 7.73684 5.04651 8.09204M13.0769 11.292H1.84651C1.49078 11.292 1.18651 11.1656 0.933711 10.9128C0.680378 10.6595 0.553711 10.3552 0.553711 10V2.95364H1.35371V10C1.35371 10.1227 1.40491 10.2355 1.50731 10.3384C1.61024 10.4414 1.72331 10.4928 1.84651 10.4928H13.0769V11.292ZM4.24651 8.09204H3.75371V1.38564H4.24651C4.11318 1.38564 3.99771 1.43444 3.90011 1.53204C3.80251 1.62964 3.75371 1.74484 3.75371 1.87764V7.60004C3.75371 7.73337 3.80251 7.84884 3.90011 7.94644C3.99771 8.04404 4.11318 8.09284 4.24651 8.09284" fill="#D16F9A"/>
</g>
<defs>
<clipPath id="clip0_1_2553">
<rect width="16" height="11.2" fill="white" transform="translate(0 0.400024)"/>
</clipPath>
</defs>
</svg>
