<svg width="44" height="24" viewBox="0 0 44 24" fill="none" xmlns="http://www.w3.org/2000/svg">
<g clip-path="url(#clip0_54_165)">
<path d="M12.0002 0.75C7.08769 0.75 2.9252 3.9 1.3877 8.25H22.6127C21.0752 3.9 16.9127 0.75 12.0002 0.75Z" fill="#ED4C5C"/>
<path d="M12.0002 23.25C16.9127 23.25 21.0752 20.1375 22.6127 15.75H1.3877C2.9252 20.1375 7.08769 23.25 12.0002 23.25Z" fill="#3E4347"/>
<path d="M1.3875 8.25C0.975 9.4125 0.75 10.6875 0.75 12C0.75 13.3125 0.975 14.5875 1.3875 15.75H22.6125C23.025 14.5875 23.25 13.3125 23.25 12C23.25 10.6875 23.025 9.4125 22.6125 8.25H1.3875Z" fill="#F9F9F9"/>
<path d="M11.4748 9.4124C11.5873 9.3374 11.6623 9.4124 11.7373 9.4874C11.7748 9.5624 11.7748 9.7874 11.6998 10.0499C11.6623 10.1999 11.5498 10.3499 11.4748 10.4624C11.6248 10.4624 11.8123 10.4249 11.9998 10.3499C12.1873 10.4249 12.3373 10.4624 12.5248 10.4624C12.4498 10.3124 12.3748 10.0124 12.4123 9.7874C12.4123 9.4499 12.3748 9.3374 12.2998 9.2624C12.2248 9.1874 12.0373 9.1499 11.9248 9.1499C11.8498 9.1499 11.8498 9.1874 11.8498 9.1874C11.6998 9.1499 11.5873 9.1499 11.5123 9.1874C11.4373 9.2624 11.4373 9.4499 11.4748 9.4124Z" fill="white"/>
<path d="M13.9877 10.5375C13.9127 10.125 13.5002 10.2375 13.1627 10.425C13.0127 10.5 12.8627 10.575 12.7127 10.575H12.6002C12.4127 10.575 12.1877 10.5375 12.0002 10.4625C11.8127 10.5375 11.5877 10.575 11.4002 10.575H11.3252C11.1377 10.575 10.9877 10.5 10.8377 10.3875C10.5377 10.2375 10.1252 10.125 10.0127 10.5C10.0877 10.4625 10.1627 10.3875 10.2002 10.3875L10.0502 13.9875L10.1252 13.9125L10.2752 10.425C10.3127 10.4625 10.4627 10.6125 10.5002 10.6125L10.3877 13.65L10.5002 13.5375L10.6127 10.65C10.6502 10.6875 10.7627 10.7625 10.8002 10.8L10.6877 13.3125L10.9877 13.05L11.2877 12.0375C11.0252 11.475 11.0627 10.9875 11.0627 10.9875H11.1377C11.3252 10.9875 11.7377 10.875 11.9252 10.7625C11.9627 10.7625 11.9627 10.725 12.0002 10.725C12.0002 10.7625 12.0377 10.7625 12.0752 10.8C12.2627 10.9125 12.6752 11.025 12.8627 11.025H12.9377C12.9377 11.025 12.9752 11.5125 12.7127 12.075L12.9752 13.05L13.2752 13.3125L13.1627 10.8375C13.2002 10.8 13.2752 10.725 13.3502 10.6875L13.4627 13.5L13.5752 13.6125L13.4627 10.6125C13.5002 10.575 13.6502 10.4625 13.6877 10.425L13.8377 13.875L13.9127 13.95L13.7627 10.3875C13.8002 10.425 13.9127 10.5 13.9877 10.5375Z" fill="white"/>
<path d="M11.6631 11.1373V12.5998C11.6631 12.5998 11.6631 12.6373 11.7006 12.6373C11.7381 12.7123 11.8131 12.7498 11.8506 12.8248L11.9631 12.9373L12.0756 12.8248L12.2631 12.6373V11.2123C12.1506 11.1748 12.0381 11.1373 11.9631 11.0623C11.9256 11.0248 11.8131 11.0623 11.6631 11.1373Z" fill="white"/>
<path d="M13.6125 14.2124C13.6125 14.0249 13.425 14.0249 13.275 14.0624C13.2375 14.0624 13.2375 14.0624 13.2 14.0999L12.975 13.2749L14.2125 14.4749L14.0625 10.5749C14.025 9.9749 13.5375 10.1249 13.2 10.3499C13.0125 10.4624 12.8625 10.5374 12.675 10.5374C12.4125 10.0874 12.5625 9.4874 12.375 9.3374C12.3 9.2624 12.0375 9.1499 11.85 9.1499C11.7375 9.1499 11.775 9.2249 11.775 9.2249C11.5875 9.1874 11.4375 9.1874 11.3625 9.2624C11.2875 9.2999 11.3625 9.6749 11.4 9.5999C11.5125 9.4874 11.55 9.5249 11.625 9.6374C11.7 9.7499 11.55 10.1999 11.3625 10.5374C11.1375 10.5374 10.95 10.4624 10.7625 10.3499C10.3875 10.1249 9.9 10.0124 9.9 10.5749L9.75 14.4374L10.9875 13.2749L10.7625 14.0624C10.725 14.0624 10.725 14.0624 10.6875 14.0249C10.5375 13.9874 10.35 13.9874 10.35 14.1749C10.125 14.1374 10.05 14.4749 10.275 14.5499C10.275 14.6624 10.275 14.7374 10.425 14.7374C10.7625 14.8499 11.3625 14.8874 11.9625 14.8874C12.5625 14.8874 13.1625 14.8499 13.5 14.7374C13.65 14.6999 13.65 14.6249 13.65 14.5499C13.95 14.4749 13.8375 14.1374 13.6125 14.2124ZM11.7 12.5999C11.7 12.5624 11.7 12.5624 11.7 12.5999L11.6625 12.5624V11.1374C11.8125 11.0999 11.925 11.0624 12 10.9874C12.075 11.0624 12.1875 11.0999 12.3 11.1374V12.5624C12.225 12.6374 12.1875 12.7124 12.1125 12.7499L12 12.8624L11.8875 12.7499C11.8125 12.7124 11.775 12.6374 11.7 12.5999ZM11.7 10.0874C11.775 9.8249 11.775 9.5999 11.7375 9.5249C11.6625 9.4499 11.5875 9.3749 11.475 9.4499C11.4375 9.4874 11.4375 9.2999 11.5125 9.2624C11.5875 9.2249 11.7 9.2249 11.85 9.2624C11.85 9.2624 11.85 9.1874 11.925 9.2249C12.0375 9.2249 12.2625 9.2999 12.3 9.3374C12.3375 9.3749 12.4125 9.5249 12.4125 9.8624C12.4125 10.0874 12.45 10.3874 12.525 10.5374C12.375 10.5374 12.1875 10.4999 12 10.4249C11.8125 10.4999 11.6625 10.5374 11.475 10.5374C11.55 10.3874 11.6625 10.2374 11.7 10.0874ZM10.725 13.4249L10.8375 10.9124C10.8 10.8749 10.725 10.7999 10.65 10.7624L10.5 13.6124L10.3875 13.7249L10.5 10.6874C10.4625 10.6499 10.3125 10.5374 10.275 10.4999L10.125 13.9874L10.05 14.0624L10.2 10.4624C10.1625 10.4624 10.05 10.4999 10.0125 10.5749C10.125 10.1999 10.5375 10.3124 10.8375 10.4999C10.9875 10.6124 11.175 10.6499 11.325 10.6874H11.4C11.5875 10.6874 11.775 10.6499 12 10.5749C12.225 10.6499 12.4125 10.6874 12.6 10.6874H12.7125C12.8625 10.6499 13.0125 10.6124 13.1625 10.5374C13.5 10.3499 13.9125 10.2374 13.9875 10.6499C13.9125 10.6124 13.8 10.5374 13.7625 10.5374L13.9125 14.0999L13.8375 14.0249L13.6875 10.4999C13.65 10.5374 13.5 10.6874 13.4625 10.6874L13.575 13.6874L13.4625 13.5749L13.35 10.7624C13.3125 10.7999 13.2 10.8749 13.1625 10.9124L13.275 13.3874L12.975 13.1249L12.7125 12.1499C12.975 11.5874 12.9375 11.0999 12.9375 11.0999H12.8625C12.675 11.0999 12.2625 11.0249 12.075 10.8749C12.0375 10.8749 12.0375 10.8374 12 10.7999C12 10.7999 11.9625 10.8374 11.925 10.8374C11.7375 10.9499 11.325 11.0624 11.1375 11.0624H11.0625C11.0625 11.0624 11.025 11.5499 11.2875 12.1124L10.9875 13.1249L10.725 13.4249ZM12 14.1749H11.5875L11.85 12.8999C11.8875 12.9374 11.925 12.9749 12 13.0124C12.0375 12.9749 12.1125 12.9374 12.15 12.8999L12.45 14.1749H12Z" fill="#C09300"/>
</g>
<path d="M31.5 9.75L36 14.25L40.5 9.75" stroke="black" stroke-width="2.25" stroke-linecap="round" stroke-linejoin="round"/>
<defs>
<clipPath id="clip0_54_165">
<rect width="24" height="24" fill="white"/>
</clipPath>
</defs>
</svg>
