<svg width="24" height="24" viewBox="0 0 24 24" fill="none" xmlns="http://www.w3.org/2000/svg">
<path d="M12 16.5C11.223 16.4988 10.4596 16.2965 9.78408 15.9127C9.10852 15.5289 8.54384 14.9768 8.145 14.31L6.8625 15.06C7.39645 15.9451 8.15 16.6772 9.0501 17.1854C9.95021 17.6936 10.9663 17.9606 12 17.9606C13.0337 17.9606 14.0498 17.6936 14.9499 17.1854C15.85 16.6772 16.6036 15.9451 17.1375 15.06L15.855 14.31C15.4562 14.9768 14.8915 15.5289 14.2159 15.9127C13.5404 16.2965 12.777 16.4988 12 16.5ZM22.5 3H19.5V0H18V3H15V4.5H18V7.5H19.5V4.5H22.5V3ZM8.625 8.25C8.25416 8.25 7.89165 8.35997 7.58331 8.56599C7.27496 8.77202 7.03464 9.06486 6.89273 9.40747C6.75081 9.75008 6.71368 10.1271 6.78603 10.4908C6.85838 10.8545 7.03695 11.1886 7.29918 11.4508C7.5614 11.713 7.89549 11.8916 8.25921 11.964C8.62292 12.0363 8.99992 11.9992 9.34253 11.8573C9.68514 11.7154 9.97798 11.475 10.184 11.1667C10.39 10.8584 10.5 10.4958 10.5 10.125C10.502 9.87821 10.4549 9.6335 10.3613 9.40511C10.2678 9.17672 10.1298 8.96923 9.95528 8.79472C9.78077 8.62021 9.57328 8.48217 9.34489 8.38865C9.1165 8.29513 8.87179 8.248 8.625 8.25ZM15.375 8.25C15.0042 8.25 14.6416 8.35997 14.3333 8.56599C14.025 8.77202 13.7846 9.06486 13.6427 9.40747C13.5008 9.75008 13.4637 10.1271 13.536 10.4908C13.6084 10.8545 13.787 11.1886 14.0492 11.4508C14.3114 11.713 14.6455 11.8916 15.0092 11.964C15.3729 12.0363 15.7499 11.9992 16.0925 11.8573C16.4351 11.7154 16.728 11.475 16.934 11.1667C17.14 10.8584 17.25 10.4958 17.25 10.125C17.252 9.87821 17.2049 9.6335 17.1113 9.40511C17.0178 9.17672 16.8798 8.96923 16.7053 8.79472C16.5308 8.62021 16.3233 8.48217 16.0949 8.38865C15.8665 8.29513 15.6218 8.248 15.375 8.25Z" fill="white"/>
<path d="M20.7076 9.75C20.8973 10.4851 20.9955 11.2408 21.0001 12C21.0001 13.78 20.4722 15.5201 19.4833 17.0001C18.4943 18.4802 17.0887 19.6337 15.4442 20.3149C13.7997 20.9961 11.9901 21.1743 10.2442 20.8271C8.49841 20.4798 6.89477 19.6226 5.6361 18.364C4.37742 17.1053 3.52026 15.5016 3.17299 13.7558C2.82572 12.01 3.00395 10.2004 3.68514 8.55585C4.36633 6.91131 5.51988 5.50571 6.99992 4.51677C8.47997 3.52784 10.22 3 12.0001 3V1.5C9.82654 1.49926 7.70635 2.17304 5.93202 3.42839C4.15768 4.68374 2.81664 6.45878 2.09392 8.50863C1.3712 10.5585 1.30242 12.7821 1.89707 14.8727C2.49171 16.9633 3.72048 18.8178 5.41384 20.1804C7.10719 21.543 9.18168 22.3466 11.3511 22.4801C13.5205 22.6137 15.6779 22.0708 17.5257 20.9263C19.3734 19.7817 20.8204 18.0919 21.6671 16.0901C22.5137 14.0883 22.7183 11.873 22.2526 9.75H20.7076Z" fill="white"/>
</svg>
