<svg width="24" height="24" viewBox="0 0 24 24" fill="none" xmlns="http://www.w3.org/2000/svg">
<path d="M16.8473 4.5C17.3934 4.49954 17.9341 4.6081 18.4376 4.81931C18.9412 5.03052 19.3975 5.34014 19.7798 5.73C20.5677 6.52979 21.0093 7.60737 21.0093 8.73C21.0093 9.85264 20.5677 10.9302 19.7798 11.73L12.0098 19.5975L4.23984 11.73C3.45203 10.9302 3.01043 9.85264 3.01043 8.73C3.01043 7.60737 3.45203 6.52979 4.23984 5.73C4.62241 5.34042 5.07877 5.03096 5.58227 4.81972C6.08578 4.60848 6.62632 4.49968 7.17234 4.49968C7.71836 4.49968 8.25891 4.60848 8.76241 4.81972C9.26591 5.03096 9.72227 5.34042 10.1048 5.73L12.0098 7.68L13.9073 5.745C14.2885 5.35049 14.7453 5.0369 15.2505 4.82298C15.7557 4.60906 16.2988 4.49921 16.8473 4.5ZM16.8473 3C16.1016 2.99937 15.3632 3.14764 14.6754 3.43613C13.9877 3.72461 13.3645 4.1475 12.8423 4.68L12.0098 5.52L11.1773 4.68C10.6546 4.14846 10.0312 3.72631 9.34358 3.43814C8.65598 3.14998 7.91789 3.00157 7.17234 3.00157C6.42679 3.00157 5.68871 3.14998 5.0011 3.43814C4.31349 3.72631 3.69013 4.14846 3.16734 4.68C2.10375 5.76272 1.50781 7.21977 1.50781 8.7375C1.50781 10.2552 2.10375 11.7123 3.16734 12.795L12.0098 21.75L20.8523 12.795C21.9159 11.7123 22.5119 10.2552 22.5119 8.7375C22.5119 7.21977 21.9159 5.76272 20.8523 4.68C20.3294 4.14852 19.7061 3.72629 19.0185 3.43788C18.331 3.14947 17.5929 3.00062 16.8473 3Z" fill="#9E9E9E"/>
</svg>
