<svg width="20" height="20" viewBox="0 0 20 20" fill="none" xmlns="http://www.w3.org/2000/svg">
<path d="M17.7087 9.99999H7.41283M3.77866 9.99999H2.29199M3.77866 9.99999C3.77866 9.51818 3.97006 9.0561 4.31075 8.71541C4.65144 8.37472 5.11352 8.18332 5.59533 8.18332C6.07714 8.18332 6.53921 8.37472 6.8799 8.71541C7.22059 9.0561 7.41199 9.51818 7.41199 9.99999C7.41199 10.4818 7.22059 10.9439 6.8799 11.2846C6.53921 11.6253 6.07714 11.8167 5.59533 11.8167C5.11352 11.8167 4.65144 11.6253 4.31075 11.2846C3.97006 10.9439 3.77866 10.4818 3.77866 9.99999ZM17.7087 15.5058H12.9187M12.9187 15.5058C12.9187 15.9877 12.7268 16.4503 12.386 16.7911C12.0453 17.1319 11.5831 17.3233 11.1012 17.3233C10.6193 17.3233 10.1573 17.1311 9.81658 16.7904C9.47589 16.4497 9.28449 15.9876 9.28449 15.5058M12.9187 15.5058C12.9187 15.0239 12.7268 14.5621 12.386 14.2214C12.0453 13.8806 11.5831 13.6892 11.1012 13.6892C10.6193 13.6892 10.1573 13.8806 9.81658 14.2212C9.47589 14.5619 9.28449 15.024 9.28449 15.5058M9.28449 15.5058H2.29199M17.7087 4.49416H15.1212M11.487 4.49416H2.29199M11.487 4.49416C11.487 4.01235 11.6784 3.55027 12.0191 3.20958C12.3598 2.86889 12.8218 2.67749 13.3037 2.67749C13.5422 2.67749 13.7785 2.72448 13.9989 2.81578C14.2193 2.90707 14.4195 3.04089 14.5882 3.20958C14.7569 3.37827 14.8907 3.57854 14.982 3.79895C15.0733 4.01936 15.1203 4.25559 15.1203 4.49416C15.1203 4.73272 15.0733 4.96896 14.982 5.18937C14.8907 5.40977 14.7569 5.61004 14.5882 5.77873C14.4195 5.94743 14.2193 6.08124 13.9989 6.17254C13.7785 6.26383 13.5422 6.31082 13.3037 6.31082C12.8218 6.31082 12.3598 6.11943 12.0191 5.77873C11.6784 5.43804 11.487 4.97597 11.487 4.49416Z" stroke="white" stroke-width="1.3" stroke-miterlimit="10" stroke-linecap="round"/>
</svg>
