<svg width="16" height="16" viewBox="0 0 16 16" fill="none" xmlns="http://www.w3.org/2000/svg">
<path d="M11.8333 2C12.408 2 12.9591 2.22827 13.3654 2.6346C13.7717 3.04093 14 3.59203 14 4.16667V11.8333C14 12.408 13.7717 12.9591 13.3654 13.3654C12.9591 13.7717 12.408 14 11.8333 14H4.16667C3.59203 14 3.04093 13.7717 2.6346 13.3654C2.22827 12.9591 2 12.408 2 11.8333V4.16667C2 3.59203 2.22827 3.04093 2.6346 2.6346C3.04093 2.22827 3.59203 2 4.16667 2H11.8333ZM11.8333 3H4.16667C3.85725 3 3.5605 3.12292 3.34171 3.34171C3.12292 3.5605 3 3.85725 3 4.16667V11.8333C3 12.4773 3.52267 13 4.16667 13H11.8333C12.1428 13 12.4395 12.8771 12.6583 12.6583C12.8771 12.4395 13 12.1428 13 11.8333V4.16667C13 3.85725 12.8771 3.5605 12.6583 3.34171C12.4395 3.12292 12.1428 3 11.8333 3ZM5.16667 4.66667C5.28749 4.66667 5.40423 4.71043 5.49529 4.78984C5.58635 4.86926 5.64557 4.97896 5.662 5.09867L5.66667 5.16667V5.83333C5.66663 5.96002 5.6185 6.08196 5.53202 6.17453C5.44553 6.26709 5.32713 6.32338 5.20075 6.33202C5.07436 6.34065 4.94941 6.30099 4.85113 6.22105C4.75286 6.1411 4.6886 6.02683 4.67133 5.90133L4.66667 5.83333V5.16667C4.66667 5.03406 4.71935 4.90688 4.81311 4.81311C4.90688 4.71935 5.03406 4.66667 5.16667 4.66667ZM5.662 10.0987C5.64473 9.97317 5.58047 9.8589 5.4822 9.77895C5.38393 9.69901 5.25897 9.65935 5.13259 9.66798C5.0062 9.67662 4.8878 9.73291 4.80132 9.82547C4.71483 9.91804 4.66671 10.04 4.66667 10.1667V10.8333L4.67133 10.9013C4.6886 11.0268 4.75286 11.1411 4.85113 11.221C4.94941 11.301 5.07436 11.3407 5.20075 11.332C5.32713 11.3234 5.44553 11.2671 5.53202 11.1745C5.6185 11.082 5.66663 10.96 5.66667 10.8333V10.1667L5.662 10.0987ZM5.66667 7.54733C5.6494 7.42183 5.58514 7.30757 5.48687 7.22762C5.38859 7.14768 5.26364 7.10802 5.13725 7.11665C5.01087 7.12528 4.89247 7.18157 4.80598 7.27414C4.7195 7.36671 4.67137 7.48865 4.67133 7.61533L4.66667 8.38L4.67133 8.448C4.6886 8.5735 4.75286 8.68777 4.85113 8.76771C4.94941 8.84766 5.07436 8.88732 5.20075 8.87868C5.32713 8.87005 5.44553 8.81376 5.53202 8.72119C5.6185 8.62863 5.66663 8.50668 5.66667 8.38L5.67133 7.61467L5.66667 7.54733Z" fill="#D16F9A"/>
</svg>
