<svg width="24" height="24" viewBox="0 0 24 24" fill="none" xmlns="http://www.w3.org/2000/svg">
<g clip-path="url(#clip0_54_224)">
<path d="M18.5 5.5V5.5C19.6046 5.5 20.5 6.39543 20.5 7.5V21.5C20.5 22.6046 19.6046 23.5 18.5 23.5H5.5C4.39543 23.5 3.5 22.6046 3.5 21.5V5.2785C3.5 4.26433 4.26081 3.4129 5.26547 3.27427C12.5303 2.27185 17.789 0.645039 18.2212 0.509104C18.2426 0.502393 18.2614 0.5 18.2838 0.5V0.5C18.4032 0.5 18.5 0.596816 18.5 0.716244V5.5ZM18.5 5.5H6M16.5 14.5C16.5 13.3065 16.0259 12.1619 15.182 11.318C14.3381 10.4741 13.1935 10 12 10M16.5 14.5C16.5 15.0909 16.3836 15.6761 16.1575 16.2221C15.9313 16.768 15.5998 17.2641 15.182 17.682C14.7641 18.0998 14.268 18.4313 13.7221 18.6575C13.1761 18.8836 12.5909 19 12 19M16.5 14.5C16 15 14.5 15.5 12 15.5C9.5 15.5 8 15 7.5 14.5M12 10C10.8065 10 9.66193 10.4741 8.81802 11.318C7.97411 12.1619 7.5 13.3065 7.5 14.5M12 10C12.966 10 13.75 12.015 13.75 14.5C13.75 16.985 12.966 19 12 19M12 10C11.034 10 10.25 12.015 10.25 14.5C10.25 16.985 11.034 19 12 19M12 19C10.8065 19 9.66193 18.5259 8.81802 17.682C8.40016 17.2641 8.06869 16.768 7.84254 16.2221C7.6164 15.6761 7.5 15.0909 7.5 14.5" stroke="#D16F9A" stroke-width="1.5"/>
</g>
<defs>
<clipPath id="clip0_54_224">
<rect width="24" height="24" fill="white"/>
</clipPath>
</defs>
</svg>
