<svg width="20" height="20" viewBox="0 0 20 20" fill="none" xmlns="http://www.w3.org/2000/svg">
<g clip-path="url(#clip0_1_3602)">
<path d="M1.66699 10.17C1.66699 8.26246 1.66699 7.30913 2.10033 6.51913C2.53199 5.72829 3.32283 5.23829 4.90366 4.25663L6.57033 3.22246C8.24116 2.18496 9.07699 1.66663 10.0003 1.66663C10.9237 1.66663 11.7587 2.18496 13.4303 3.22246L15.097 4.25663C16.6778 5.23829 17.4687 5.72829 17.9012 6.51913C18.3337 7.30913 18.3337 8.26246 18.3337 10.1691V11.4375C18.3337 14.6875 18.3337 16.3133 17.357 17.3233C16.3812 18.3333 14.8095 18.3333 11.667 18.3333H8.33366C5.19116 18.3333 3.61949 18.3333 2.64366 17.3233C1.66699 16.3133 1.66699 14.6883 1.66699 11.4375V10.17Z" stroke="#D16F9A" stroke-width="1.5"/>
<path d="M10 12.5V15" stroke="#D16F9A" stroke-width="1.5" stroke-linecap="round"/>
</g>
<defs>
<clipPath id="clip0_1_3602">
<rect width="20" height="20" fill="white"/>
</clipPath>
</defs>
</svg>
