<svg width="24" height="24" viewBox="0 0 24 24" fill="none" xmlns="http://www.w3.org/2000/svg">
<path d="M13.5 9.75C13.5 9.55109 13.421 9.36032 13.2803 9.21967C13.1397 9.07902 12.9489 9 12.75 9H6.75C6.55109 9 6.36032 9.07902 6.21967 9.21967C6.07902 9.36032 6 9.55109 6 9.75C6 9.94891 6.07902 10.1397 6.21967 10.2803C6.36032 10.421 6.55109 10.5 6.75 10.5H12.75C12.9489 10.5 13.1397 10.421 13.2803 10.2803C13.421 10.1397 13.5 9.94891 13.5 9.75ZM12.5 12.75C12.5 12.5511 12.421 12.3603 12.2803 12.2197C12.1397 12.079 11.9489 12 11.75 12H6.75C6.55109 12 6.36032 12.079 6.21967 12.2197C6.07902 12.3603 6 12.5511 6 12.75C6 12.9489 6.07902 13.1397 6.21967 13.2803C6.36032 13.421 6.55109 13.5 6.75 13.5H11.75C11.9489 13.5 12.1397 13.421 12.2803 13.2803C12.421 13.1397 12.5 12.9489 12.5 12.75ZM12.75 15C12.9489 15 13.1397 15.079 13.2803 15.2197C13.421 15.3603 13.5 15.5511 13.5 15.75C13.5 15.9489 13.421 16.1397 13.2803 16.2803C13.1397 16.421 12.9489 16.5 12.75 16.5H6.75C6.55109 16.5 6.36032 16.421 6.21967 16.2803C6.07902 16.1397 6 15.9489 6 15.75C6 15.5511 6.07902 15.3603 6.21967 15.2197C6.36032 15.079 6.55109 15 6.75 15H12.75Z" fill="#D16F9A"/>
<path fill-rule="evenodd" clip-rule="evenodd" d="M6 21.7501H19C19.7293 21.7501 20.4288 21.4604 20.9445 20.9447C21.4603 20.4289 21.75 19.7295 21.75 19.0001V13.5001C21.75 13.3012 21.671 13.1104 21.5303 12.9698C21.3897 12.8291 21.1989 12.7501 21 12.7501H17.75V4.94312C17.75 3.52012 16.141 2.69212 14.983 3.51912L14.808 3.64412C14.4248 3.91615 13.9663 4.06195 13.4964 4.06123C13.0264 4.06051 12.5684 3.91331 12.186 3.64012C11.5476 3.18579 10.7835 2.94165 10 2.94165C9.21645 2.94165 8.45238 3.18579 7.814 3.64012C7.43162 3.91331 6.97359 4.06051 6.50364 4.06123C6.03369 4.06195 5.57521 3.91615 5.192 3.64412L5.017 3.51912C3.859 2.69212 2.25 3.51912 2.25 4.94312V18.0001C2.25 18.9947 2.64509 19.9485 3.34835 20.6518C4.05161 21.355 5.00544 21.7501 6 21.7501ZM8.686 4.86012C9.06995 4.58756 9.52915 4.44115 10 4.44115C10.4709 4.44115 10.9301 4.58756 11.314 4.86012C11.9507 5.31524 12.7136 5.56033 13.4962 5.56123C14.2788 5.56213 15.0423 5.31878 15.68 4.86512L15.855 4.74012C15.8923 4.71353 15.9363 4.69772 15.982 4.69442C16.0277 4.69112 16.0735 4.70046 16.1143 4.72142C16.1551 4.74237 16.1893 4.77414 16.2132 4.81324C16.2372 4.85234 16.2499 4.89727 16.25 4.94312V19.0001C16.25 19.4501 16.358 19.8751 16.55 20.2501H6C5.40326 20.2501 4.83097 20.0131 4.40901 19.5911C3.98705 19.1692 3.75 18.5969 3.75 18.0001V4.94312C3.75012 4.89727 3.76284 4.85234 3.78678 4.81324C3.81072 4.77414 3.84495 4.74237 3.88573 4.72142C3.9265 4.70046 3.97226 4.69112 4.01798 4.69442C4.06371 4.69772 4.10765 4.71353 4.145 4.74012L4.32 4.86512C4.95775 5.31878 5.72116 5.56213 6.5038 5.56123C7.28644 5.56033 8.04929 5.31524 8.686 4.86012ZM17.75 19.0001V14.2501H20.25V19.0001C20.25 19.3316 20.1183 19.6496 19.8839 19.884C19.6495 20.1184 19.3315 20.2501 19 20.2501C18.6685 20.2501 18.3505 20.1184 18.1161 19.884C17.8817 19.6496 17.75 19.3316 17.75 19.0001Z" fill="#D16F9A"/>
</svg>
