<svg width="25" height="24" viewBox="0 0 25 24" fill="none" xmlns="http://www.w3.org/2000/svg">
<path d="M8.33984 9H16.3398M8.33984 13H14.3398M18.3398 4C19.1355 4 19.8986 4.31607 20.4612 4.87868C21.0238 5.44129 21.3398 6.20435 21.3398 7V15C21.3398 15.7956 21.0238 16.5587 20.4612 17.1213C19.8986 17.6839 19.1355 18 18.3398 18H13.3398L8.33984 21V18H6.33984C5.54419 18 4.78113 17.6839 4.21852 17.1213C3.65591 16.5587 3.33984 15.7956 3.33984 15V7C3.33984 6.20435 3.65591 5.44129 4.21852 4.87868C4.78113 4.31607 5.54419 4 6.33984 4H18.3398Z" stroke="#9E9E9E" stroke-width="1.5" stroke-linecap="round" stroke-linejoin="round"/>
</svg>
