<svg width="343" height="240" viewBox="0 0 343 240" fill="none" xmlns="http://www.w3.org/2000/svg">
<path d="M343 210.906H0V211.068H343V210.906Z" fill="#EBEBEB"/>
<path d="M58.7047 217.039H35.9844V217.2H58.7047V217.039Z" fill="#EBEBEB"/>
<path d="M123.361 215.297H105.258V215.458H123.361V215.297Z" fill="#EBEBEB"/>
<path d="M93.2198 220.844H61.7188V221.005H93.2198V220.844Z" fill="#EBEBEB"/>
<path d="M308.63 221.945H293.812V222.107H308.63V221.945Z" fill="#EBEBEB"/>
<path d="M290.478 221.945H268.547V222.107H290.478V221.945Z" fill="#EBEBEB"/>
<path d="M227.976 219.227H190.164V219.388H227.976V219.227Z" fill="#EBEBEB"/>
<path d="M162.581 182.177H30.1211C29.0835 182.176 28.0889 181.787 27.3558 181.098C26.6227 180.408 26.2109 179.474 26.2109 178.499V3.64613C26.22 2.67728 26.6357 1.7509 27.3678 1.06821C28.1 0.385522 29.0894 0.00165969 30.1211 0H162.581C163.62 0 164.616 0.387538 165.351 1.07736C166.085 1.76718 166.498 2.70278 166.498 3.67834V178.499C166.498 179.475 166.085 180.41 165.351 181.1C164.616 181.79 163.62 182.177 162.581 182.177ZM30.1211 0.128839C29.1289 0.130545 28.178 0.501867 27.4771 1.1613C26.7761 1.82074 26.3824 2.7144 26.3824 3.64613V178.499C26.3824 179.431 26.7761 180.325 27.4771 180.984C28.178 181.643 29.1289 182.015 30.1211 182.016H162.581C163.574 182.015 164.525 181.644 165.227 180.984C165.929 180.325 166.325 179.431 166.326 178.499V3.64613C166.325 2.71381 165.929 1.82016 165.227 1.16091C164.525 0.501658 163.574 0.130542 162.581 0.128839H30.1211Z" fill="#EBEBEB"/>
<path d="M310.969 182.177H178.503C177.465 182.176 176.469 181.788 175.735 181.098C175.001 180.409 174.588 179.474 174.586 178.499V3.64613C174.597 2.67669 175.014 1.75032 175.747 1.06781C176.48 0.385297 177.471 0.00164159 178.503 0H310.969C312 0.00335269 312.988 0.387964 313.718 1.07047C314.449 1.75298 314.864 2.67839 314.873 3.64613V178.499C314.873 179.472 314.462 180.406 313.73 181.096C312.999 181.785 312.006 182.174 310.969 182.177ZM178.503 0.128839C177.51 0.130542 176.559 0.501658 175.856 1.16091C175.154 1.82016 174.759 2.71381 174.757 3.64613V178.499C174.759 179.431 175.154 180.325 175.856 180.984C176.559 181.644 177.51 182.015 178.503 182.016H310.969C311.962 182.015 312.914 181.644 313.616 180.984C314.318 180.325 314.713 179.431 314.715 178.499V3.64613C314.713 2.71381 314.318 1.82016 313.616 1.16091C312.914 0.501658 311.962 0.130542 310.969 0.128839H178.503Z" fill="#EBEBEB"/>
<path d="M109.311 103.641H152.57V37.6174H109.311V103.641Z" fill="#EBEBEB"/>
<path d="M103.541 103.641H150.422V37.6174H103.541V103.641Z" fill="#F5F5F5"/>
<path d="M146.492 99.9441V41.2969H107.466V99.9441H146.492Z" fill="white"/>
<path d="M137.031 90.3934V50.8594H116.925V90.3934H137.031Z" fill="#F5F5F5"/>
<path d="M44.0299 73.9609H87.2891L87.2891 7.93771H44.0299L44.0299 73.9609Z" fill="#EBEBEB"/>
<path d="M38.2516 73.9609H85.1328L85.1328 7.93771H38.2516L38.2516 73.9609Z" fill="#F5F5F5"/>
<path d="M81.2031 70.2722V11.625L42.1766 11.625L42.1766 70.2722H81.2031Z" fill="white"/>
<path d="M71.7422 51.2763V30.6171C71.7422 25.405 67.2427 21.1797 61.6923 21.1797H61.6854C56.135 21.1797 51.6355 25.405 51.6355 30.6171V51.2763C51.6355 56.4885 56.135 60.7137 61.6854 60.7137H61.6923C67.2427 60.7137 71.7422 56.4885 71.7422 51.2763Z" fill="#F5F5F5"/>
<path d="M40.2328 210.906H57.3828L57.3828 144.007H40.2328L40.2328 210.906Z" fill="#E6E6E6"/>
<path d="M43.4851 210.905H40.2266V202.453H46.9013L43.4851 210.905Z" fill="#F0F0F0"/>
<path d="M133.272 210.906H150.422V144.007H133.272V210.906Z" fill="#E6E6E6"/>
<path d="M40.2272 207.164H136.109V144.007H40.2272L40.2272 207.164Z" fill="#F0F0F0"/>
<path d="M132.855 210.905H136.113V202.453H129.445L132.855 210.905Z" fill="#F0F0F0"/>
<path d="M133.392 151.462V173.59H42.9499V151.462H133.392ZM133.584 151.281H42.7578V173.77H133.584V151.281Z" fill="#FDFEFF"/>
<path d="M133.392 177.593V199.702H42.9499V177.593H133.392ZM133.584 177.406H42.7578V199.901H133.584V177.406Z" fill="#FDFEFF"/>
<path d="M94.6601 154.695H81.6673C81.2628 154.695 80.8623 154.62 80.4886 154.475C80.1149 154.33 79.7753 154.117 79.4893 153.848C79.2033 153.58 78.9764 153.261 78.8216 152.91C78.6668 152.559 78.5872 152.183 78.5872 151.803V151.275H97.7266V151.803C97.7266 152.568 97.4039 153.302 96.8293 153.844C96.2546 154.386 95.4747 154.692 94.6601 154.695Z" fill="#FDFEFF"/>
<path d="M94.6601 180.828H81.6673C81.2628 180.828 80.8623 180.753 80.4886 180.608C80.1149 180.463 79.7753 180.25 79.4893 179.981C79.2033 179.712 78.9764 179.394 78.8216 179.043C78.6668 178.692 78.5872 178.316 78.5872 177.936V177.407H97.7266V177.936C97.7266 178.701 97.4039 179.434 96.8293 179.976C96.2546 180.518 95.4747 180.825 94.6601 180.828Z" fill="#FDFEFF"/>
<path d="M70.0957 130.461L67.5781 129.36V92.6406L70.0957 93.7422V130.461Z" fill="#E6E6E6"/>
<path d="M66.7308 88.1134C69.6051 91.6886 69.3719 96.4041 69.3719 96.4041C69.3719 96.4041 64.4875 95.3412 61.5995 91.7595C58.7114 88.1778 58.9584 83.4688 58.9584 83.4688C58.9584 83.4688 63.8564 84.5445 66.7308 88.1134Z" fill="#E6E6E6"/>
<path d="M66.7894 99.927C70.1576 104.965 69.2659 111.181 69.2659 111.181C69.2659 111.181 62.9204 109.248 59.5521 104.192C56.1838 99.1346 57.0756 92.9375 57.0756 92.9375C57.0756 92.9375 63.4211 94.8894 66.7894 99.927Z" fill="#E6E6E6"/>
<path d="M71.4816 94.9479C68.6072 98.5168 68.8405 103.239 68.8405 103.239C68.8405 103.239 73.7385 102.163 76.6197 98.5876C79.5009 95.0124 79.2608 90.2969 79.2608 90.2969C79.2608 90.2969 74.3628 91.3727 71.4816 94.9479Z" fill="#E6E6E6"/>
<path d="M71.4177 106.756C68.0563 111.794 68.9412 118.011 68.9412 118.011C68.9412 118.011 75.2936 116.078 78.655 111.027C82.0164 105.977 81.1383 99.7734 81.1383 99.7734C81.1383 99.7734 74.7722 101.719 71.4177 106.756Z" fill="#E6E6E6"/>
<path d="M61.0512 109.386C67.5339 114.166 69.3518 122.141 69.3518 122.141C69.3518 122.141 60.6876 122.398 54.1912 117.593C47.6948 112.787 45.8906 104.838 45.8906 104.838C45.8906 104.838 54.596 104.606 61.0512 109.386Z" fill="#E6E6E6"/>
<path d="M67.8242 144.008C73.9296 144.008 78.9785 143.699 79.3284 137.972L80.3437 130.461H55.3047L56.32 137.972C56.6698 143.699 61.7394 144.008 67.8242 144.008Z" fill="#F0F0F0"/>
<path d="M53.6767 133.558H81.9604L82.7768 123.992H52.8672L53.6767 133.558Z" fill="#F0F0F0"/>
<path d="M172.252 191.682V172.46H185.91V153.231H199.569V134.008H213.227V114.785H226.892V95.5626H240.55V76.3399H254.208V57.1172H267.867H342.997V210.905H172.252H158.594V191.682H172.252Z" fill="#FAFAFA"/>
<path d="M247.377 191.682V172.46H261.042V153.231H274.7V134.008H288.359V114.785H302.017V95.5626H315.682V76.3399H329.34V57.1172H342.998V76.3399V210.905H247.377H233.719V191.682H247.377Z" fill="#E0E0E0"/>
<path d="M233.722 191.688H157.789V197.453H233.722V191.688Z" fill="#EBEBEB"/>
<path d="M247.379 172.461H171.445V178.226H247.379V172.461Z" fill="#EBEBEB"/>
<path d="M261.043 153.234H185.109V159H261.043V153.234Z" fill="#EBEBEB"/>
<path d="M274.699 134.008H198.766V139.773H274.699V134.008Z" fill="#EBEBEB"/>
<path d="M288.363 114.789H212.43V120.555H288.363V114.789Z" fill="#EBEBEB"/>
<path d="M302.019 95.5625H226.086V101.328H302.019V95.5625Z" fill="#EBEBEB"/>
<path d="M315.675 76.3438H239.742V82.1093H315.675V76.3438Z" fill="#EBEBEB"/>
<path d="M329.34 57.1172H253.406V62.8827H329.34V57.1172Z" fill="#EBEBEB"/>
<path d="M294.326 64.9359L291.438 63.6733V21.5625L294.326 22.8251V64.9359Z" fill="#F5F5F5"/>
<path d="M290.469 16.3665C293.762 20.4636 293.494 25.8748 293.494 25.8748C293.494 25.8748 287.876 24.638 284.576 20.5409C281.277 16.4438 281.544 11.0391 281.544 11.0391C281.544 11.0391 287.169 12.2695 290.469 16.3665Z" fill="#F5F5F5"/>
<path d="M290.537 29.92C294.399 35.7177 293.377 42.8038 293.377 42.8038C293.377 42.8038 286.098 40.5878 282.236 34.7901C278.374 28.9924 279.396 21.9062 279.396 21.9062C279.396 21.9062 286.674 24.1416 290.537 29.92Z" fill="#F5F5F5"/>
<path d="M295.92 24.2022C292.62 28.2993 292.888 33.7105 292.888 33.7105C292.888 33.7105 298.506 32.4801 301.806 28.383C305.106 24.286 304.831 18.8748 304.831 18.8748C304.831 18.8748 299.213 20.1052 295.92 24.2022Z" fill="#F5F5F5"/>
<path d="M295.845 37.7481C291.983 43.5458 293.005 50.632 293.005 50.632C293.005 50.632 300.284 48.3902 304.146 42.6182C308.008 36.8463 306.986 29.7344 306.986 29.7344C306.986 29.7344 299.707 31.9697 295.845 37.7481Z" fill="#F5F5F5"/>
<path d="M292.922 76.3426C299.92 76.3426 305.709 75.9883 306.114 69.424L307.28 60.8047H278.578L279.751 69.424C280.149 76.0141 285.939 76.3426 292.922 76.3426Z" fill="#E0E0E0"/>
<path d="M276.715 64.3548H309.156L310.082 53.3906H275.789L276.715 64.3548Z" fill="#E0E0E0"/>
<path d="M171.501 239.999C244.959 239.999 304.509 236.734 304.509 232.706C304.509 228.679 244.959 225.414 171.501 225.414C98.0421 225.414 38.4922 228.679 38.4922 232.706C38.4922 236.734 98.0421 239.999 171.501 239.999Z" fill="#F5F5F5"/>
<path d="M93.8675 55.3166C93.0923 58.5375 92.173 61.6747 91.1235 64.7991C90.5952 66.358 90.019 67.8976 89.4222 69.4437C89.1204 70.2167 88.8048 70.9833 88.4824 71.7499L87.9816 72.9223C87.6583 73.7348 87.1636 74.4776 86.5273 75.1061C85.687 75.9184 84.5852 76.4482 83.3923 76.6136C82.4721 76.7345 81.5348 76.6619 80.6483 76.401C79.4897 76.051 78.4004 75.5243 77.4241 74.842C75.8903 73.7585 74.481 72.5279 73.2189 71.1701C70.8544 68.6689 68.746 65.9643 66.9214 63.092C66.6607 62.6993 66.5628 62.2303 66.6462 61.7742C66.7295 61.3181 66.9884 60.9067 67.3737 60.6181C67.7589 60.3295 68.2436 60.1839 68.7356 60.2088C69.2277 60.2338 69.6929 60.4277 70.0427 60.7536L70.1113 60.8115C71.2844 61.8809 72.478 63.0211 73.7059 64.0325C74.9339 65.0439 76.1412 66.139 77.376 67.0988C78.5214 68.0211 79.7545 68.8427 81.0599 69.5532C81.4813 69.801 81.9456 69.9776 82.4319 70.075C82.5485 70.075 82.5005 70.0106 82.2261 70.0299C81.8828 70.0699 81.5614 70.2095 81.3068 70.4293C81.1079 70.6097 81.1147 70.6483 81.1285 70.5517L81.4715 69.4501L82.1575 67.1955C82.6171 65.6881 83.0424 64.1613 83.4814 62.6475L86.0334 53.545V53.4871C86.3128 52.5342 86.9765 51.721 87.8837 51.2199C88.7909 50.7189 89.8703 50.5694 90.8929 50.8032C91.9155 51.037 92.801 51.6356 93.3614 52.4722C93.9218 53.3088 94.1132 54.3175 93.8949 55.2844L93.8675 55.3166Z" fill="#FFC3BD"/>
<path d="M87.8679 46.2218C84.0263 49.4428 83.2031 58.732 83.2031 58.732L94.673 65.393C94.673 65.393 95.7295 60.2394 96.4635 53.9843C97.2936 47.201 92.519 42.3051 87.8679 46.2218Z" fill="#5271FF"/>
<path d="M114.012 40.8684C106.103 40.8298 98.2344 41.6801 90.3798 44.5339C88.6811 45.1734 87.2578 46.3262 86.3348 47.8101C85.4117 49.294 85.0416 51.0245 85.2828 52.728C86.2295 59.6595 88.8568 72.6142 96.149 90.439L123.692 83.3529C122.793 79.3396 114.897 60.4583 114.012 40.8684Z" fill="#5271FF"/>
<path d="M70.5448 61.3641L68.7269 57.2734L63.8906 60.7199C63.8906 60.7199 64.7481 64.1534 68.3428 63.4641L70.5448 61.3641Z" fill="#FFC3BD"/>
<path d="M64.6163 55.6294L62.9287 57.7231C62.7942 57.8646 62.7064 58.0398 62.676 58.2274C62.6455 58.4149 62.6738 58.6068 62.7572 58.7795L63.8891 60.7121L68.7254 57.2657L66.3382 55.2429C66.055 55.0806 65.715 55.0302 65.3923 55.1026C65.0697 55.175 64.7907 55.3644 64.6163 55.6294Z" fill="#FFC3BD"/>
<path opacity="0.2" d="M110.938 50.25C111.061 52.131 114.45 59.958 117.111 61.3881C116.474 58.7598 115.884 55.9962 115.39 53.136L110.938 50.25Z" fill="black"/>
<path d="M99.8338 29.4609C100.033 33.1586 101.027 39.8067 104.341 41.6426C102.777 43.9746 100.65 46.7317 96.1431 47.7882C91.6361 48.8447 91.6498 45.7848 92.4387 44.0197C96.4587 42.2224 95.56 39.3042 94.0783 36.6952L99.8338 29.4609Z" fill="#FFC3BD"/>
<path opacity="0.2" d="M97.4925 32.4141L94.0625 36.6979C94.419 37.2987 94.7174 37.9282 94.9543 38.579C96.5252 38.0379 98.3226 35.9314 98.0756 34.3144C98.0035 33.6534 97.806 33.0098 97.4925 32.4141Z" fill="black"/>
<path d="M89.7061 21.6466C92.8274 22.6773 92.2375 25.0672 90.9958 26.1559C92.9372 26.8001 94.3023 29.2416 94.3023 29.2416L91.0095 31.7217C91.0095 31.7217 86.4202 31.5865 85.6176 29.145C84.815 26.7035 80.3491 23.7982 85.1854 20.9573C90.0217 18.1164 89.7061 21.6466 89.7061 21.6466Z" fill="#263238"/>
<path d="M99.4696 23.8704C100.293 28.7791 101.041 31.6007 99.0169 34.622C95.9642 39.1313 89.0562 38.1972 86.6689 33.6106C84.5286 29.4749 83.5407 22.144 88.1506 19.2065C89.1725 18.5551 90.3536 18.1579 91.5835 18.0521C92.8133 17.9462 94.0517 18.1351 95.1826 18.6011C96.3136 19.0671 97.3001 19.7949 98.0499 20.7165C98.7996 21.6381 99.2881 22.7232 99.4696 23.8704Z" fill="#FFC3BD"/>
<path d="M95.7645 20.0289C95.2774 21.6072 90.4686 20.0289 87.0523 21.6136C85.4951 22.3351 83.1352 25.4788 78.8203 23.3529C78.8203 23.3529 81.7564 22.2192 82.1063 20.0031C82.5178 17.4264 83.3685 14.1023 88.1979 14.9205C93.0274 15.7386 93.83 13.806 96.9581 14.4695C100.903 15.3005 102.371 22.4511 95.7645 20.0289Z" fill="#263238"/>
<path d="M94.7856 19.7352C93.297 22.5504 95.5265 23.8387 97.2415 23.8387C96.3565 25.5909 97.1866 28.2193 97.1866 28.2193L101.385 27.8134C101.385 27.8134 104.561 24.702 103.299 22.4215C102.037 20.1411 103.072 15.1422 97.5022 16.2953C91.9318 17.4484 94.7856 19.7352 94.7856 19.7352Z" fill="#263238"/>
<path d="M96.0938 17.5058C99.0092 16.1079 100.155 14.1753 100.285 12.1719C101.829 14.7809 101.026 17.538 96.0938 17.5058Z" fill="#263238"/>
<path d="M102.431 28.2734C102.039 29.398 101.205 30.34 100.099 30.9081C98.6858 31.5523 97.794 30.2639 98.041 28.7501C98.2537 27.3522 99.2483 25.323 100.737 25.2972C102.226 25.2714 102.953 26.8368 102.431 28.2734Z" fill="#FFC3BD"/>
<path d="M91.8281 195.344L98.5098 194.545L99.134 183.008L91.8899 183.678L91.8281 195.344Z" fill="#FFC3BD"/>
<path d="M103.546 135.76C110.934 118 117.636 84.9141 117.636 84.9141L96.1715 90.4348C96.1715 90.4348 90.8893 121.304 90.3405 136.565C89.7643 152.438 90.2376 186.761 90.2376 186.761H100.459C100.459 186.761 105.494 148.167 103.546 135.76Z" fill="#263238"/>
<path opacity="0.2" d="M112.508 101.086C107.116 106.31 106.286 116.766 107.109 126.035C109.75 117.932 112.158 108.771 114.003 101.157L112.508 101.086Z" fill="black"/>
<path d="M89.9726 187.917L100.702 188.336L101.401 185.083L89.4375 184.445L89.9726 187.917Z" fill="#5271FF"/>
<path d="M92.7762 26.2764C92.8723 26.6758 92.7213 27.0365 92.4469 27.0945C92.1725 27.1525 91.8707 26.8691 91.7609 26.4503C91.6512 26.0316 91.8158 25.6902 92.0902 25.6386C92.3646 25.5871 92.687 25.8834 92.7762 26.2764Z" fill="#263238"/>
<path d="M87.5497 27.2061C87.6457 27.6055 87.4948 27.9662 87.2204 28.0242C86.946 28.0822 86.6441 27.7987 86.5344 27.38C86.4246 26.9613 86.5893 26.6199 86.8637 26.5683C87.1381 26.5168 87.4605 26.8131 87.5497 27.2061Z" fill="#263238"/>
<path d="M88.433 27.3672C88.2165 28.6723 87.8078 29.9428 87.2188 31.1421C87.5457 31.2727 87.8986 31.3356 88.2537 31.3267C88.6088 31.3178 88.9577 31.2373 89.2767 31.0906L88.433 27.3672Z" fill="#ED847E"/>
<path d="M90.6403 32.3959C91.1214 32.3665 91.5911 32.245 92.0205 32.0389C92.4499 31.8329 92.8299 31.5467 93.1373 31.1978C93.1517 31.1856 93.163 31.1706 93.1705 31.1538C93.1779 31.137 93.1813 31.1188 93.1803 31.1007C93.1793 31.0825 93.1741 31.0648 93.1649 31.0487C93.1557 31.0327 93.1428 31.0188 93.1272 31.0081C93.1116 30.9973 93.0936 30.99 93.0746 30.9865C93.0555 30.9831 93.0359 30.9837 93.0172 30.9883C92.9985 30.9929 92.981 31.0014 92.9662 31.0131C92.9514 31.0248 92.9395 31.0395 92.9315 31.056C92.5854 31.4388 92.1475 31.7388 91.6537 31.9314C91.1599 32.1241 90.6245 32.2038 90.0915 32.164C90.0581 32.164 90.0259 32.176 90.0016 32.1976C89.9774 32.2192 89.9629 32.2487 89.9611 32.28C89.9602 32.2958 89.9627 32.3115 89.9685 32.3264C89.9743 32.3412 89.9832 32.3547 89.9948 32.3662C90.0063 32.3776 90.0203 32.3868 90.0357 32.393C90.0512 32.3992 90.0678 32.4024 90.0846 32.4024C90.2697 32.4133 90.4555 32.4111 90.6403 32.3959Z" fill="#263238"/>
<path d="M92.8439 24.0642C92.8835 24.0512 92.9189 24.0291 92.9468 23.9998C92.9922 23.9544 93.0174 23.8945 93.0174 23.8323C93.0174 23.77 92.9922 23.7102 92.9468 23.6648C92.6467 23.4117 92.2867 23.2294 91.8966 23.1331C91.5064 23.0367 91.0975 23.0291 90.7036 23.1108C90.6405 23.1287 90.5874 23.169 90.5554 23.2231C90.5234 23.2772 90.515 23.3409 90.5321 23.4007C90.5513 23.4616 90.5949 23.5131 90.6538 23.5443C90.7127 23.5756 90.7822 23.5841 90.8477 23.5681C91.1601 23.5059 91.484 23.5149 91.7919 23.5945C92.0999 23.6741 92.383 23.8219 92.6176 24.0255C92.6488 24.0492 92.6859 24.0652 92.7255 24.072C92.765 24.0787 92.8058 24.076 92.8439 24.0642Z" fill="#263238"/>
<path d="M84.6034 26.096C84.6441 26.0871 84.6815 26.068 84.7117 26.0408C84.7418 26.0136 84.7637 25.9793 84.7749 25.9414C84.854 25.6487 85.0077 25.3785 85.2229 25.154C85.438 24.9296 85.708 24.7576 86.0097 24.653C86.0422 24.6449 86.0726 24.6307 86.099 24.6112C86.1255 24.5917 86.1474 24.5673 86.1635 24.5396C86.1795 24.5118 86.1894 24.4813 86.1924 24.4499C86.1955 24.4184 86.1916 24.3867 86.1812 24.3567C86.1621 24.2975 86.1191 24.2476 86.0615 24.2175C86.0039 24.1874 85.9361 24.1796 85.8725 24.1956C85.4937 24.3183 85.1523 24.5253 84.8774 24.7991C84.6026 25.0729 84.4027 25.4052 84.2947 25.7675C84.2798 25.8081 84.2772 25.8519 84.2873 25.8939C84.2974 25.9358 84.3196 25.9743 84.3517 26.0051C84.3837 26.0358 84.4242 26.0576 84.4687 26.068C84.5131 26.0783 84.5597 26.0769 84.6034 26.0638V26.096Z" fill="#263238"/>
<path d="M145.248 177.104L150.386 173.013L144.226 163.016L138.539 167.287L145.248 177.104Z" fill="#FFC3BD"/>
<path d="M129.658 133.42C123.601 111.433 133.383 94.4137 123.676 83.3594L105.477 88.0362C105.477 88.0362 112.186 122.056 117.873 136.505C123.8 151.521 138.576 170.712 138.576 170.712L147.323 165.713C147.323 165.713 139.036 147.167 129.658 133.42Z" fill="#263238"/>
<path d="M149.222 172.071C149.598 171.951 150.003 171.94 150.385 172.04C150.767 172.14 151.107 172.346 151.363 172.631L155.341 176.863C155.423 176.957 155.484 177.066 155.52 177.183C155.556 177.299 155.566 177.422 155.55 177.542C155.534 177.663 155.492 177.779 155.427 177.884C155.361 177.988 155.274 178.08 155.17 178.152C152.762 179.788 153.194 179.26 150.841 180.806C148.097 182.616 147.926 183.518 144.235 185.025C142.047 185.921 140.853 184.864 141.258 183.962C143.144 179.775 143.316 177.462 144.276 176.393C144.276 176.393 141.278 175.478 141.683 173.816C142.088 172.154 145.346 170.183 146.636 170.853C147.084 171.034 147.465 171.334 147.734 171.717C148.002 172.099 148.145 172.547 148.145 173.005C148.365 172.576 148.75 172.242 149.222 172.071Z" fill="#263238"/>
<path d="M97.497 192.948C97.8939 192.945 98.2825 193.055 98.6118 193.263C98.9412 193.471 99.1958 193.768 99.3424 194.114L101.688 199.319C101.735 199.434 101.755 199.557 101.749 199.679C101.743 199.802 101.711 199.922 101.654 200.032C101.597 200.143 101.516 200.241 101.417 200.321C101.318 200.401 101.203 200.462 101.078 200.498C98.2448 201.329 99.8912 200.75 97.1335 201.516C93.9093 202.412 88.9015 204.692 85.1285 205.742C82.8441 206.386 81.8288 204.415 82.6657 203.842C88.0097 200.183 90.0951 196.318 91.3505 195.583C91.3505 195.583 88.8123 193.824 89.759 192.362C90.7056 190.9 92.1462 190.378 93.1409 191.396C93.4998 191.703 93.7557 192.102 93.8775 192.543C93.9993 192.985 93.9817 193.45 93.8269 193.882C95.0229 193.483 96.2499 193.17 97.497 192.948Z" fill="#263238"/>
<path d="M139.077 172.261L148.269 167.049L146.945 163.977L136.594 169.639L139.077 172.261Z" fill="#5271FF"/>
<path d="M115.773 42.8971C117.482 43.9986 119.018 45.1066 120.575 46.2597C122.133 47.4128 123.662 48.6175 125.172 49.8479C128.253 52.3565 131.096 55.1111 133.671 58.0807C134 58.4543 134.357 58.8537 134.632 59.2724C134.906 59.6911 135.27 60.0905 135.558 60.5157L136.395 61.8041L137.156 63.0925C138.1 64.7816 138.948 66.5169 139.694 68.2911C141.176 71.7601 142.364 75.3336 143.248 78.9782C143.35 79.4251 143.278 79.8919 143.042 80.2922C142.807 80.6926 142.426 80.9996 141.969 81.1567C141.512 81.3136 141.009 81.31 140.555 81.1464C140.1 80.9829 139.724 80.6704 139.495 80.2666V80.2151C137.739 77.0714 135.942 73.8827 134.076 70.8485C133.129 69.3347 132.176 67.8466 131.174 66.4487C130.205 65.0876 129.129 63.7957 127.957 62.5836C125.464 60.0758 122.789 57.7339 119.951 55.5748C118.517 54.4474 117.049 53.3587 115.574 52.2701C114.1 51.1814 112.57 50.1056 111.136 49.1006L111.081 49.0684C110.648 48.7787 110.28 48.4117 109.999 47.9885C109.717 47.5652 109.526 47.094 109.439 46.6017C109.351 46.1094 109.367 45.6056 109.486 45.1192C109.606 44.6328 109.826 44.1732 110.134 43.7667C110.758 42.9458 111.703 42.3909 112.761 42.2242C113.286 42.1417 113.822 42.1569 114.34 42.269C114.858 42.3811 115.347 42.588 115.78 42.8777L115.773 42.8971Z" fill="#FFC3BD"/>
<path d="M114.019 40.8688C119.178 40.9525 124.783 48.5347 124.783 48.5347L119.775 57.2699C115.799 56.0187 112.303 53.6952 109.725 50.5896C105.383 45.0947 107.77 40.7721 114.019 40.8688Z" fill="#5271FF"/>
<path d="M138.883 78.5938L140.317 83.4833L145.805 80.2623C145.805 80.2623 143.932 75.9849 141.352 76.5518L138.883 78.5938Z" fill="#FFC3BD"/>
<path d="M145.172 86.1034L146.901 84.6797C147.235 84.4041 147.454 84.0265 147.519 83.6137C147.584 83.2009 147.492 82.7798 147.258 82.425L145.824 80.2734L140.336 83.4944L142.524 85.9423C142.687 86.1166 142.884 86.259 143.105 86.3614C143.326 86.4638 143.567 86.5242 143.813 86.5392C144.059 86.5542 144.305 86.5234 144.539 86.4486C144.772 86.3738 144.987 86.2565 145.172 86.1034Z" fill="#FFC3BD"/>
<path d="M255.395 68.7151C257.364 62.9689 271.647 72.7413 272.621 76.3874C273.595 80.0335 261.7 82.8293 269.445 88.0923C277.19 93.3554 262.64 91.4937 265.548 95.0561C268.457 98.6184 269.939 105.808 255.944 100.815C241.95 95.8227 231.591 90.5081 240.509 87.8218C249.427 85.1355 234.795 80.7357 243.884 77.2828C252.974 73.8299 241.957 69.8939 255.395 68.7151Z" fill="#D16F9A"/>
<path d="M266.422 107.831C267.204 110.363 268.116 113.017 269.077 115.562C269.57 116.85 270.085 118.061 270.634 119.259C270.929 119.846 271.21 120.445 271.519 120.999C271.663 121.289 271.821 121.559 271.978 121.817L272.218 122.216L272.28 122.319V122.371C272.114 122.239 271.916 122.146 271.704 122.1C271.554 122.044 271.387 122.044 271.237 122.1C271.586 122.04 271.912 121.895 272.184 121.681C273.238 120.961 274.211 120.141 275.086 119.234C277.007 117.301 278.886 115.124 280.663 112.959L280.704 112.914C280.96 112.606 281.326 112.395 281.735 112.322C282.143 112.249 282.566 112.319 282.924 112.518C283.282 112.718 283.55 113.033 283.678 113.404C283.806 113.776 283.786 114.179 283.62 114.537C282.379 117.249 280.856 119.838 279.072 122.268C278.112 123.6 276.986 124.82 275.717 125.901C274.86 126.629 273.847 127.178 272.747 127.511C271.871 127.764 270.938 127.784 270.051 127.569C269.115 127.323 268.274 126.829 267.629 126.146C267.478 125.998 267.375 125.862 267.252 125.721L267.128 125.553L267.032 125.431L266.669 124.935C266.422 124.6 266.195 124.29 265.983 123.936C265.523 123.292 265.146 122.603 264.755 121.926C264.014 120.58 263.342 119.227 262.745 117.855C261.545 115.133 260.552 112.335 259.774 109.48C259.567 108.667 259.704 107.81 260.157 107.089C260.611 106.369 261.345 105.843 262.204 105.622C263.063 105.401 263.98 105.503 264.761 105.906C265.542 106.308 266.125 106.98 266.387 107.78L266.422 107.831Z" fill="#FF8B7B"/>
<path d="M282.488 115.88L285.527 114.192L282.461 109.953C282.461 109.953 280.005 112.388 279.984 114.83L282.488 115.88Z" fill="#FF8B7B"/>
<path d="M286.7 109.423L286.563 109.295C286.214 108.906 285.719 108.659 285.181 108.605C284.643 108.551 284.104 108.694 283.675 109.005L282.461 109.952L285.527 114.19L286.831 113.037C287.307 112.534 287.559 111.879 287.535 111.206C287.511 110.533 287.212 109.895 286.7 109.423Z" fill="#FF8B7B"/>
<path d="M256.559 103.84C256.641 105.528 257.684 108.832 258.555 111.306C259.186 113.097 259.714 114.443 259.714 114.443L260.764 114.153L269.462 111.725C269.366 107.376 268.92 102.609 264.262 99.9039C261.313 98.2032 256.394 100.825 256.559 103.84Z" fill="#263238"/>
<path opacity="0.3" d="M258.539 111.303C259.17 113.094 259.698 114.44 259.698 114.44L260.748 114.15C260.823 112.449 260.803 109.75 259.993 108.43C259.293 109.278 258.797 110.258 258.539 111.303Z" fill="black"/>
<path d="M217.375 227.543L222.815 228.032L225.758 216.115L220.318 215.625L217.375 227.543Z" fill="#FF8B7B"/>
<path d="M178.734 213.438L183.269 216.44L191.775 207.441L187.241 204.445L178.734 213.438Z" fill="#FF8B7B"/>
<path d="M184.128 215.98L180.773 211.045C180.719 210.96 180.632 210.897 180.531 210.868C180.429 210.84 180.32 210.848 180.225 210.891L175.793 212.888C175.684 212.945 175.588 213.023 175.511 213.116C175.435 213.209 175.379 213.316 175.349 213.43C175.318 213.544 175.312 213.663 175.332 213.779C175.352 213.895 175.397 214.006 175.464 214.105C176.664 215.813 177.337 216.573 178.805 218.744C179.717 220.084 181.549 223.163 182.77 225.012C183.991 226.86 185.98 225.759 185.63 224.883C184.059 220.947 184.128 218.692 184.347 216.895C184.388 216.575 184.311 216.252 184.128 215.98Z" fill="#263238"/>
<path d="M223.562 226.484H217.011C216.894 226.486 216.782 226.524 216.69 226.591C216.599 226.659 216.533 226.752 216.503 226.858L215.227 231.722C215.197 231.839 215.195 231.961 215.223 232.078C215.251 232.196 215.307 232.306 215.387 232.4C215.467 232.494 215.569 232.57 215.686 232.621C215.802 232.672 215.929 232.697 216.057 232.694C218.362 232.694 219.487 232.546 222.341 232.546C224.111 232.546 228.693 232.707 231.142 232.707C233.591 232.707 233.969 230.433 232.974 230.227C228.501 229.306 225.908 228.031 224.502 226.819C224.245 226.6 223.909 226.48 223.562 226.484Z" fill="#263238"/>
<path opacity="0.2" d="M225.745 216.115L224.105 222.776L218.672 222.26L220.305 215.625L225.745 216.115Z" fill="black"/>
<path opacity="0.2" d="M187.235 204.445L191.776 207.441L187.386 212.079L182.852 209.077L187.235 204.445Z" fill="black"/>
<path d="M229.203 119.02L249.433 128.135C267.379 102.516 265.486 100.783 265.486 100.783C265.486 100.783 262.357 98.5087 259.051 96.5181C258.55 96.2218 258.043 95.9255 257.542 95.642C254.591 94.0504 251.524 92.6576 248.363 91.4741C247.897 91.2873 247.43 91.1134 246.991 90.9394C244.471 90.0405 241.896 89.2834 239.28 88.6719C238.492 92.4468 237.778 95.6291 237.092 98.3863C236.2 101.981 235.357 104.828 234.513 107.302C233.079 111.335 231.303 115.253 229.203 119.02Z" fill="#263238"/>
<path opacity="0.3" d="M234.492 107.324C236.845 104.851 239.562 98.7696 239.356 96.3281L237.072 98.4089C236.18 102.003 235.336 104.87 234.492 107.324Z" fill="black"/>
<path d="M252.623 86.1544C251.628 88.5766 250.208 90.9085 248.356 91.5012C248.356 91.5012 246.154 96.5774 253.22 102.266C260.663 98.6839 257.541 95.6433 257.541 95.6433C254.598 93.408 255.525 91.3015 258.063 88.2351L255.874 86.0964C255.734 85.7979 255.503 85.545 255.21 85.3694C254.917 85.1938 254.576 85.1035 254.228 85.1097C253.881 85.1159 253.543 85.2183 253.257 85.4042C252.972 85.5901 252.751 85.8511 252.623 86.1544Z" fill="#FF8B7B"/>
<path opacity="0.2" d="M255.881 86.0917C255.752 85.8068 255.54 85.5617 255.269 85.3843C254.999 85.2069 254.681 85.1043 254.351 85.0882C254.022 85.0721 253.694 85.1431 253.406 85.2932C253.117 85.4432 252.879 85.6663 252.719 85.9371C253.099 88.1367 254.188 90.1738 255.84 91.7735C256.338 90.4748 257.087 89.2736 258.049 88.2304L255.881 86.0917Z" fill="black"/>
<path d="M251.077 77.1241C250.837 82.3163 250.618 84.5065 253.039 87.4763C256.682 91.9405 263.391 91.219 265.25 86.233C266.924 81.7236 267.047 73.9933 262.005 71.3328C260.909 70.7337 259.665 70.4143 258.396 70.4064C257.128 70.3985 255.879 70.7024 254.774 71.2879C253.669 71.8734 252.747 72.7201 252.098 73.7439C251.45 74.7677 251.098 75.933 251.077 77.1241Z" fill="#FF8B7B"/>
<path d="M267.084 78.3741C267.095 78.3763 267.107 78.3763 267.118 78.3741C267.156 78.3181 267.169 78.2507 267.155 78.186C267.141 78.1213 267.101 78.0641 267.043 78.0262C266.712 77.7946 266.326 77.6424 265.918 77.5829C265.511 77.5234 265.094 77.5584 264.704 77.6848C264.638 77.7104 264.586 77.7594 264.559 77.821C264.532 77.8827 264.532 77.9518 264.56 78.0133C264.587 78.0748 264.639 78.1236 264.705 78.149C264.77 78.1744 264.844 78.1742 264.91 78.1486C265.22 78.0511 265.551 78.0266 265.874 78.0771C266.197 78.1277 266.502 78.2517 266.762 78.4385C266.814 78.4669 266.877 78.4761 266.936 78.4642C266.996 78.4523 267.048 78.4202 267.084 78.3741Z" fill="#263238"/>
<path d="M254.026 72.2971C258.286 78.0562 252.606 76.1622 253.656 79.3832C254.342 81.5541 249.08 86.1408 247.653 82.2756C246.226 78.4105 247.084 71.5047 254.026 72.2971Z" fill="#D16F9A"/>
<path d="M252.297 72.2568C253.065 77.6616 258.354 71.9669 260.124 74.8336C261.894 77.7002 270.647 76.0318 268.109 72.7077C265.571 69.3837 255.603 66.4655 252.297 72.2568Z" fill="#D16F9A"/>
<path d="M249.074 81.4845C249.227 82.5688 249.822 83.555 250.735 84.2352C251.942 85.1242 253.094 84.2352 253.211 82.8695C253.314 81.6391 252.813 79.7001 251.379 79.3458C249.946 78.9915 248.896 80.151 249.074 81.4845Z" fill="#FF8B7B"/>
<path d="M249.437 128.137C249.437 128.137 243.743 153.989 239.51 173.875C236.142 189.683 226.147 219.851 226.147 219.851L218.148 219.103C218.148 219.103 220.7 183.383 227.999 172.966C227.869 149.776 224.617 127.164 233.254 120.703L249.437 128.137Z" fill="#D16F9A"/>
<path d="M217.006 216.805L227.522 218.022L226.617 221.359L216.766 220.361L217.006 216.805Z" fill="#263238"/>
<path opacity="0.3" d="M235.251 140.732L227.705 133.93C226.807 141.963 227.41 152.463 227.746 163.608C232.418 155.935 235.882 147.587 235.251 140.732Z" fill="black"/>
<path d="M244.985 126.206C244.985 126.206 229.584 151.51 221.661 170.301C220.704 172.608 219.531 174.83 218.156 176.943C208.552 191.514 190.242 210.499 190.242 210.499L184.391 205.906C184.391 205.906 202.583 173.799 209.862 166.52C214.828 144.314 218.629 124.647 229.18 119.023L244.985 126.206Z" fill="#D16F9A"/>
<path d="M190.064 212.232L182.477 206.718L184.288 203.555L192.616 209.984L190.064 212.232Z" fill="#263238"/>
<path d="M229.436 117.749L227.707 119.038C227.577 119.134 227.673 119.347 227.913 119.456L249.124 129.022C249.309 129.1 249.494 129.087 249.563 128.984L250.557 127.341C250.633 127.232 250.516 127.058 250.317 126.968L229.806 117.756C229.749 117.727 229.686 117.712 229.622 117.711C229.557 117.71 229.494 117.723 229.436 117.749Z" fill="#D16F9A"/>
<path opacity="0.2" d="M229.436 117.749L227.707 119.038C227.577 119.134 227.673 119.347 227.913 119.456L249.124 129.022C249.309 129.1 249.494 129.087 249.563 128.984L250.557 127.341C250.633 127.232 250.516 127.058 250.317 126.968L229.806 117.756C229.749 117.727 229.686 117.712 229.622 117.711C229.557 117.71 229.494 117.723 229.436 117.749Z" fill="black"/>
<path d="M231.184 121.168L230.635 120.917C230.526 120.872 230.464 120.781 230.505 120.717L231.822 118.598C231.863 118.533 231.987 118.527 232.09 118.598L232.638 118.849C232.748 118.894 232.81 118.991 232.769 119.049L231.452 121.168C231.414 121.198 231.367 121.214 231.318 121.214C231.269 121.214 231.221 121.198 231.184 121.168Z" fill="#D16F9A"/>
<path d="M247.491 128.543L246.942 128.292C246.832 128.247 246.777 128.15 246.818 128.092L248.135 125.973C248.177 125.908 248.293 125.902 248.403 125.973L248.952 126.224C249.062 126.269 249.116 126.359 249.082 126.424L247.758 128.543C247.724 128.582 247.6 128.588 247.491 128.543Z" fill="#D16F9A"/>
<path d="M239.326 124.855L238.777 124.604C238.674 124.559 238.612 124.469 238.654 124.405L239.971 122.285C240.012 122.221 240.128 122.214 240.238 122.285L240.787 122.536C240.897 122.581 240.958 122.672 240.917 122.736L239.6 124.855C239.559 124.894 239.415 124.901 239.326 124.855Z" fill="#D16F9A"/>
<path d="M258.835 79.5418C258.787 79.9605 258.98 80.3277 259.268 80.3663C259.556 80.405 259.823 80.0893 259.871 79.6706C259.919 79.2519 259.72 78.8783 259.439 78.8461C259.158 78.8138 258.883 79.1231 258.835 79.5418Z" fill="#263238"/>
<path d="M263.789 80.1433C263.741 80.5621 263.933 80.9293 264.221 80.9679C264.509 81.0066 264.776 80.6909 264.824 80.2657C264.872 79.8406 264.68 79.4798 264.392 79.4476C264.104 79.4154 263.837 79.7246 263.789 80.1433Z" fill="#263238"/>
<path d="M264.266 79.4505L265.349 79.2891C265.349 79.2891 264.725 80.0122 264.266 79.4505Z" fill="#263238"/>
<path d="M259.134 82.811C258.919 82.8107 258.705 82.7847 258.496 82.7337C258.082 82.6304 257.698 82.4398 257.373 82.1764C257.049 81.913 256.792 81.5837 256.624 81.2134C256.243 80.389 256.163 79.4697 256.397 78.5984C256.63 77.7271 257.163 76.9524 257.913 76.3949C258.245 76.1375 258.636 75.9571 259.056 75.868C259.476 75.779 259.912 75.7839 260.329 75.8823C260.747 75.9808 261.133 76.17 261.459 76.4347C261.784 76.6994 262.038 77.0322 262.201 77.4063C262.599 78.2266 262.679 79.1517 262.427 80.0217C262.211 80.8995 261.674 81.6788 260.911 82.2248C260.402 82.5952 259.778 82.8008 259.134 82.811ZM259.69 76.1114C259.116 76.1216 258.56 76.3045 258.105 76.6332C257.413 77.1489 256.921 77.8643 256.705 78.669C256.489 79.4736 256.562 80.3226 256.912 81.0846C257.054 81.4182 257.279 81.7153 257.568 81.9518C257.856 82.1883 258.2 82.3573 258.571 82.4453C258.942 82.5332 259.33 82.5375 259.703 82.4577C260.077 82.378 260.425 82.2165 260.719 81.9865C261.411 81.4708 261.903 80.7554 262.119 79.9507C262.335 79.1461 262.262 78.2971 261.913 77.5351C261.762 77.206 261.535 76.9129 261.248 76.6776C260.96 76.4422 260.62 76.2708 260.252 76.1758C260.069 76.1323 259.88 76.1106 259.69 76.1114Z" fill="white"/>
<path d="M265.133 83.6508C264.983 83.65 264.833 83.6327 264.687 83.5993C263.315 83.2707 262.629 81.4734 263.102 79.586C263.576 77.6985 265.16 76.423 266.532 76.7451C267.904 77.0672 268.59 78.8709 268.11 80.7648C267.896 81.6182 267.419 82.3934 266.738 82.9937C266.308 83.3921 265.736 83.6263 265.133 83.6508ZM266.073 76.9963C264.968 76.9963 263.83 78.1043 263.418 79.6568C262.951 81.3833 263.555 83.0195 264.79 83.3029C265.108 83.36 265.436 83.341 265.744 83.2475C266.052 83.1541 266.331 82.9893 266.553 82.7683C267.183 82.207 267.623 81.483 267.815 80.6875C268.275 78.9611 267.671 77.3248 266.443 77.0414C266.322 77.0106 266.198 76.9954 266.073 76.9963Z" fill="white"/>
<path d="M263.238 79.8783C263.212 79.8795 263.187 79.8742 263.164 79.8629C263.141 79.8515 263.121 79.8346 263.108 79.8138C262.923 79.5884 262.422 79.7365 262.422 79.7365C262.402 79.7429 262.381 79.7455 262.36 79.7442C262.339 79.743 262.319 79.7379 262.3 79.7292C262.281 79.7205 262.264 79.7084 262.251 79.6937C262.237 79.6789 262.226 79.6617 262.219 79.6431C262.213 79.6245 262.21 79.6048 262.211 79.5852C262.213 79.5656 262.218 79.5464 262.227 79.5288C262.237 79.5111 262.249 79.4953 262.265 79.4824C262.281 79.4694 262.299 79.4594 262.319 79.4531C262.319 79.4531 263.053 79.2276 263.375 79.6335C263.404 79.6622 263.42 79.7002 263.42 79.7398C263.42 79.7793 263.404 79.8173 263.375 79.846C263.335 79.8717 263.287 79.8831 263.238 79.8783Z" fill="white"/>
<path d="M262.774 80.6953C263.056 81.6974 263.481 82.6594 264.036 83.5555C263.794 83.6825 263.525 83.7571 263.248 83.7738C262.972 83.7905 262.695 83.7489 262.438 83.6522L262.774 80.6953Z" fill="#FF5652"/>
<path d="M260.638 85.1268C260.663 85.1187 260.685 85.1042 260.702 85.0848C260.719 85.0655 260.73 85.0421 260.734 85.0173C260.736 84.9852 260.725 84.9534 260.704 84.9284C260.682 84.9033 260.651 84.8868 260.617 84.882C260.064 84.8234 259.533 84.6444 259.066 84.3593C258.599 84.0741 258.209 83.6907 257.928 83.2393C257.923 83.2217 257.914 83.2053 257.901 83.1914C257.889 83.1774 257.873 83.1664 257.855 83.1589C257.837 83.1515 257.818 83.148 257.798 83.1485C257.779 83.149 257.76 83.1537 257.743 83.162C257.725 83.1704 257.71 83.1823 257.698 83.1969C257.687 83.2115 257.678 83.2284 257.675 83.2463C257.671 83.2642 257.671 83.2827 257.676 83.3005C257.68 83.3182 257.689 83.3348 257.702 83.3489C257.996 83.8407 258.412 84.259 258.915 84.5684C259.418 84.8778 259.992 85.0693 260.59 85.1268H260.638Z" fill="#263238"/>
<path d="M258.533 77.8838C258.576 77.8725 258.614 77.8502 258.643 77.8194C258.859 77.5903 259.129 77.4124 259.432 77.3004C259.735 77.1885 260.062 77.1455 260.386 77.1752C260.419 77.1817 260.453 77.1819 260.487 77.1756C260.52 77.1694 260.552 77.1568 260.58 77.1388C260.608 77.1208 260.632 77.0976 260.651 77.0706C260.669 77.0437 260.682 77.0135 260.687 76.982C260.7 76.9163 260.684 76.8488 260.645 76.7936C260.605 76.7383 260.544 76.6996 260.475 76.6856C260.068 76.6335 259.654 76.6762 259.268 76.8099C258.883 76.9435 258.539 77.1641 258.266 77.4522C258.227 77.4924 258.202 77.5434 258.197 77.5976C258.191 77.6519 258.204 77.7064 258.234 77.7529C258.265 77.7994 258.31 77.8355 258.364 77.8556C258.418 77.8757 258.477 77.8789 258.533 77.8645V77.8838Z" fill="#263238"/>
<path d="M185.073 218.654H185.155C185.278 218.68 185.405 218.676 185.526 218.643C185.646 218.609 185.755 218.546 185.841 218.461C185.903 218.413 185.95 218.351 185.978 218.281C186.007 218.211 186.017 218.136 186.006 218.062C185.896 217.417 184.099 216.632 183.893 216.541C183.869 216.532 183.843 216.529 183.817 216.533C183.791 216.538 183.768 216.55 183.749 216.567C183.731 216.584 183.718 216.607 183.713 216.631C183.708 216.655 183.711 216.68 183.722 216.702C183.962 217.353 184.449 218.416 185.073 218.654ZM184.078 216.921C184.764 217.25 185.697 217.778 185.759 218.126C185.763 218.159 185.758 218.193 185.743 218.224C185.729 218.254 185.706 218.281 185.677 218.3C185.621 218.358 185.549 218.401 185.47 218.425C185.39 218.449 185.306 218.452 185.224 218.435C184.861 218.345 184.442 217.791 184.078 216.921Z" fill="#D16F9A"/>
<path d="M183.918 216.85C184.535 217.082 185.873 217.205 186.292 216.812C186.363 216.74 186.408 216.649 186.419 216.551C186.43 216.453 186.407 216.355 186.353 216.271C186.311 216.186 186.249 216.11 186.171 216.05C186.094 215.99 186.004 215.947 185.907 215.923C185.146 215.717 183.849 216.567 183.774 216.567C183.756 216.579 183.741 216.596 183.731 216.615C183.722 216.634 183.717 216.655 183.719 216.677C183.719 216.698 183.726 216.719 183.738 216.737C183.75 216.755 183.767 216.77 183.788 216.78L183.918 216.85ZM185.894 216.174C185.995 216.212 186.076 216.286 186.12 216.38C186.196 216.522 186.154 216.593 186.12 216.631C185.853 216.889 184.748 216.863 184.144 216.664C184.641 216.327 185.24 216.151 185.853 216.161L185.894 216.174Z" fill="#D16F9A"/>
<path d="M226.496 227.493C226.94 227.525 227.384 227.426 227.765 227.209C227.862 227.14 227.941 227.05 227.996 226.947C228.05 226.845 228.079 226.732 228.08 226.617C228.086 226.551 228.073 226.485 228.041 226.426C228.01 226.367 227.962 226.317 227.902 226.282C227.298 225.908 225.096 226.855 224.664 227.048C224.64 227.06 224.62 227.079 224.608 227.102C224.595 227.125 224.591 227.152 224.596 227.177C224.599 227.202 224.611 227.226 224.63 227.244C224.648 227.263 224.672 227.275 224.698 227.28C225.288 227.411 225.89 227.482 226.496 227.493ZM227.504 226.436C227.595 226.428 227.686 226.446 227.765 226.488C227.765 226.488 227.82 226.533 227.82 226.604C227.82 226.683 227.801 226.761 227.762 226.832C227.724 226.902 227.669 226.963 227.6 227.01C227.223 227.287 226.324 227.319 225.144 227.119C225.888 226.778 226.685 226.547 227.504 226.436Z" fill="#D16F9A"/>
<path d="M224.724 227.288H224.772C225.506 227.004 226.961 225.884 226.83 225.304C226.83 225.175 226.714 225.014 226.377 224.975C225.067 224.834 224.587 227.056 224.566 227.146C224.561 227.168 224.561 227.191 224.569 227.213C224.576 227.234 224.589 227.254 224.608 227.269C224.624 227.279 224.644 227.287 224.664 227.29C224.684 227.293 224.704 227.293 224.724 227.288ZM226.288 225.207H226.377C226.515 225.207 226.59 225.246 226.604 225.323C226.659 225.658 225.657 226.547 224.916 226.934C225.074 226.399 225.506 225.207 226.288 225.207Z" fill="#D16F9A"/>
<path d="M259.305 78.8567L260.389 78.6953C260.389 78.6953 259.771 79.4184 259.305 78.8567Z" fill="#263238"/>
<path d="M239.164 97.4884C237.847 98.5964 236.537 99.5627 235.185 100.561C233.834 101.56 232.441 102.494 231.014 103.396C229.569 104.325 228.074 105.185 226.535 105.972C224.855 106.879 223.059 107.583 221.191 108.066L221.026 108.105C220.621 108.198 220.197 108.198 219.791 108.105C218.399 107.772 217.059 107.269 215.806 106.61C214.675 106.031 213.584 105.386 212.54 104.678C211.525 103.978 210.553 103.241 209.625 102.468C208.699 101.676 207.821 100.903 206.956 100.007C206.691 99.7268 206.538 99.3682 206.524 98.9934C206.511 98.6186 206.636 98.2509 206.88 97.9539C207.124 97.6569 207.471 97.4492 207.861 97.3665C208.25 97.2839 208.658 97.3315 209.014 97.5012H209.076C210.071 98.0037 211.1 98.5577 212.122 99.0473C213.144 99.5369 214.18 100.039 215.182 100.49C216.183 100.941 217.24 101.354 218.193 101.695C219.077 102.02 219.998 102.249 220.937 102.378L219.565 102.429C220.855 101.952 222.09 101.352 223.249 100.638C224.539 99.8719 225.835 99.0215 227.118 98.1454C228.401 97.2693 229.677 96.3417 230.946 95.4076C232.215 94.4735 233.484 93.475 234.691 92.5796H234.726C235.422 92.0572 236.307 91.8098 237.194 91.8897C238.081 91.9696 238.901 92.3706 239.478 93.0078C240.056 93.6449 240.347 94.4682 240.29 95.3033C240.232 96.1384 239.831 96.9198 239.171 97.4819L239.164 97.4884Z" fill="#FF8B7B"/>
<path d="M209.989 98.9745L208.178 95.1094L204.617 97.9181C204.617 97.9181 206.572 100.617 208.774 101.075L209.989 98.9745Z" fill="#FF8B7B"/>
<path d="M206.542 92.4453L205.225 93.592C204.85 93.9191 204.568 94.3295 204.407 94.7854C204.245 95.2413 204.208 95.728 204.299 96.201L204.621 97.9274L208.181 95.0865L206.542 92.4453Z" fill="#FF8B7B"/>
<path d="M239.252 88.7001C236.542 88.2234 230.375 93.9374 230.375 93.9374L234.841 102.756C234.841 102.756 242.798 98.247 242.764 95.0261C242.737 92.1208 242.716 89.3121 239.252 88.7001Z" fill="#263238"/>
<path d="M204.002 86.1234C203.237 86.1239 202.48 85.9824 201.773 85.7072C201.067 85.4319 200.426 85.0282 199.886 84.5194C192.358 77.4535 182.15 73.4842 171.506 73.4842C160.862 73.4842 150.654 77.4535 143.126 84.5194C142.015 85.447 140.568 85.9408 139.081 85.8997C137.595 85.8586 136.181 85.2858 135.13 84.2983C134.078 83.3109 133.468 81.9834 133.424 80.5876C133.381 79.1917 133.906 77.8329 134.894 76.7891C144.609 67.6697 157.783 62.5469 171.52 62.5469C185.256 62.5469 198.43 67.6697 208.145 76.7891C208.96 77.5544 209.515 78.5295 209.741 79.591C209.966 80.6525 209.851 81.7528 209.41 82.753C208.97 83.7533 208.224 84.6085 207.266 85.2106C206.308 85.8128 205.182 86.1349 204.029 86.1363L204.002 86.1234Z" fill="#D16F9A"/>
<path d="M208.124 145.589C209.112 144.545 209.637 143.186 209.594 141.791C209.55 140.395 208.94 139.067 207.888 138.08C206.837 137.092 205.423 136.52 203.937 136.478C202.45 136.437 201.003 136.931 199.892 137.859C192.335 144.791 182.173 148.646 171.609 148.589C161.045 148.531 150.931 144.564 143.461 137.55C135.992 130.535 131.768 121.038 131.706 111.117C131.644 101.197 135.75 91.6544 143.132 84.5583C144.12 83.5145 144.646 82.1557 144.602 80.7598C144.558 79.364 143.948 78.0365 142.897 77.0491C141.845 76.0616 140.432 75.4888 138.945 75.4477C137.459 75.4066 136.012 75.9004 134.9 76.828C128.007 83.2991 123.198 91.4657 121.027 100.389C118.856 109.312 119.411 118.629 122.628 127.269C125.845 135.909 131.593 143.522 139.211 149.231C146.83 154.94 156.009 158.514 165.695 159.542V178.327H153.889C152.342 178.327 150.859 178.904 149.765 179.931C148.672 180.958 148.058 182.35 148.058 183.803C148.058 185.255 148.672 186.648 149.765 187.674C150.859 188.701 152.342 189.278 153.889 189.278H165.667V200.281C165.667 201.733 166.282 203.126 167.375 204.153C168.469 205.18 169.952 205.757 171.498 205.757C173.045 205.757 174.528 205.18 175.621 204.153C176.715 203.126 177.329 201.733 177.329 200.281V189.227H189.108C190.654 189.227 192.137 188.65 193.231 187.623C194.325 186.596 194.939 185.203 194.939 183.751C194.939 182.299 194.325 180.906 193.231 179.879C192.137 178.852 190.654 178.275 189.108 178.275H177.329V159.491C188.981 158.286 199.845 153.382 208.124 145.589Z" fill="#5271FF"/>
<path d="M247.045 46.1508C247.048 46.1079 247.048 46.0648 247.045 46.022C247.045 45.8609 247.045 45.6934 247.045 45.5324C247.045 45.3713 247.045 45.4035 247.045 45.3391C247.045 45.2747 247.045 45.0299 246.997 44.8817C247 44.8281 247 44.7743 246.997 44.7207C246.921 44.3088 246.795 43.9066 246.619 43.5225L246.558 43.4065C246.489 43.2533 246.408 43.1048 246.318 42.962C246.318 42.9105 246.256 42.8654 246.222 42.8139C246.137 42.6775 246.043 42.5463 245.94 42.4209L245.831 42.2856C245.695 42.1164 245.546 41.957 245.385 41.8089C245.228 41.6591 245.06 41.5192 244.884 41.3902L244.733 41.2871C244.596 41.1905 244.459 41.1068 244.321 41.023L244.15 40.9264C244.003 40.8479 243.852 40.7769 243.697 40.7138L243.553 40.6494C243.149 40.4841 242.725 40.3652 242.291 40.2951H242.099C241.948 40.2951 241.79 40.2564 241.632 40.25H241.413C241.248 40.25 241.077 40.25 240.912 40.25H240.754C240.524 40.2663 240.295 40.2965 240.068 40.3402L205.597 47.1493C204.083 47.4483 202.758 48.2997 201.912 49.5162C201.067 50.7328 200.771 52.2148 201.09 53.6363C201.408 55.0578 202.315 56.3023 203.61 57.096C204.906 57.8897 206.484 58.1676 207.998 57.8686L223.275 54.8474L199.903 76.795C199.623 77.0582 199.373 77.3475 199.155 77.6582C199.046 77.8067 198.948 77.9617 198.86 78.122C198.683 78.4359 198.54 78.7662 198.435 79.1077C198.328 79.4464 198.255 79.7935 198.215 80.1448C198.215 80.3209 198.215 80.4948 198.215 80.6666C198.215 80.847 198.215 81.0209 198.215 81.1948C198.347 82.4597 198.943 83.642 199.903 84.5382C207.416 91.6133 211.634 101.197 211.634 111.188C211.634 121.18 207.416 130.764 199.903 137.839C199.309 138.334 198.829 138.939 198.493 139.615C198.157 140.291 197.971 141.025 197.948 141.77C197.924 142.516 198.064 143.259 198.357 143.952C198.65 144.646 199.091 145.276 199.653 145.803C200.215 146.331 200.886 146.745 201.624 147.021C202.363 147.296 203.154 147.427 203.948 147.405C204.742 147.383 205.523 147.209 206.243 146.893C206.963 146.577 207.607 146.127 208.135 145.569C217.117 137.11 222.476 125.845 223.192 113.918C223.908 101.991 219.931 90.2328 212.018 80.8792L231.507 62.5777L228.29 76.9238C227.975 78.345 228.272 79.8255 229.117 81.0413C229.961 82.2571 231.284 83.1091 232.797 83.4109C233.194 83.4873 233.598 83.5262 234.004 83.5268C235.341 83.5256 236.637 83.093 237.675 82.3014C238.713 81.5097 239.429 80.4072 239.705 79.1785L246.956 46.8014C246.999 46.5865 247.029 46.3692 247.045 46.1508Z" fill="#D16F9A"/>
</svg>
